<svg xmlns="http://www.w3.org/2000/svg" width="1300" height="320" viewBox="0 0 1300 320"><rect width="100%" height="100%" fill="#0F172A"/>
<g transform="translate(40,65) scale(1.0)">
<defs><linearGradient id="grad" x1="40" y1="0" x2="220" y2="0" gradientUnits="userSpaceOnUse"><stop offset="0%" stop-color="#2563EB"/><stop offset="100%" stop-color="#7C3AED"/></linearGradient></defs>
<line x1="40" y1="150" x2="55" y2="95" stroke="url(#grad)" stroke-width="6" stroke-linecap="round" stroke-linejoin="round"/>
<line x1="55" y1="95" x2="70" y2="40" stroke="url(#grad)" stroke-width="6" stroke-linecap="round" stroke-linejoin="round"/>
<line x1="40" y1="150" x2="95" y2="105" stroke="url(#grad)" stroke-width="6" stroke-linecap="round" stroke-linejoin="round"/>
<line x1="70" y1="40" x2="95" y2="105" stroke="url(#grad)" stroke-width="6" stroke-linecap="round" stroke-linejoin="round"/>
<line x1="95" y1="105" x2="130" y2="135" stroke="url(#grad)" stroke-width="6" stroke-linecap="round" stroke-linejoin="round"/>
<line x1="130" y1="135" x2="165" y2="105" stroke="url(#grad)" stroke-width="6" stroke-linecap="round" stroke-linejoin="round"/>
<line x1="165" y1="105" x2="220" y2="150" stroke="url(#grad)" stroke-width="6" stroke-linecap="round" stroke-linejoin="round"/>
<line x1="190" y1="40" x2="165" y2="105" stroke="url(#grad)" stroke-width="6" stroke-linecap="round" stroke-linejoin="round"/>
<line x1="220" y1="150" x2="205" y2="95" stroke="url(#grad)" stroke-width="6" stroke-linecap="round" stroke-linejoin="round"/>
<line x1="205" y1="95" x2="190" y2="40" stroke="url(#grad)" stroke-width="6" stroke-linecap="round" stroke-linejoin="round"/>
<line x1="70" y1="40" x2="105" y2="55" stroke="url(#grad)" stroke-width="6" stroke-linecap="round" stroke-linejoin="round"/>
<line x1="105" y1="55" x2="130" y2="75" stroke="url(#grad)" stroke-width="6" stroke-linecap="round" stroke-linejoin="round"/>
<line x1="130" y1="75" x2="155" y2="55" stroke="url(#grad)" stroke-width="6" stroke-linecap="round" stroke-linejoin="round"/>
<line x1="155" y1="55" x2="190" y2="40" stroke="url(#grad)" stroke-width="6" stroke-linecap="round" stroke-linejoin="round"/>
<circle cx="40" cy="150" r="16" fill="#2563eb"/>
<circle cx="55" cy="95" r="11" fill="#2c5feb"/>
<circle cx="70" cy="40" r="14" fill="#335ceb"/>
<circle cx="95" cy="105" r="13" fill="#3f56eb"/>
<circle cx="130" cy="135" r="14" fill="#504eec"/>
<circle cx="165" cy="105" r="13" fill="#6146ec"/>
<circle cx="190" cy="40" r="14" fill="#6d40ec"/>
<circle cx="205" cy="95" r="11" fill="#743dec"/>
<circle cx="220" cy="150" r="16" fill="#7c3aed"/>
<circle cx="105" cy="55" r="10" fill="#4454eb"/>
<circle cx="130" cy="75" r="11" fill="#504eec"/>
<circle cx="155" cy="55" r="10" fill="#5c48ec"/>
</g>
<text x="340" y="155" font-family="Inter, Arial, sans-serif" font-size="104" font-weight="800" fill="#F9FAFB">Midwest</text>
<text x="340" y="245" font-family="Inter, Arial, sans-serif" font-size="58" font-weight="700" letter-spacing="3" fill="#8B5CF6">MANAGED IT</text>
</svg>